<?xml version="1.0" encoding="utf-8"?>
<!-- Generator: Adobe Illustrator 24.3.0, SVG Export Plug-In . SVG Version: 6.00 Build 0)  -->
<svg version="1.1" id="Layer_1" xmlns="http://www.w3.org/2000/svg" xmlns:xlink="http://www.w3.org/1999/xlink" x="0px" y="0px"
	 viewBox="0 0 1920 1920" style="enable-background:new 0 0 1920 1920;" xml:space="preserve">
<style type="text/css">
	.st0{fill:#206994;}
	.st1{fill:#367FAC;}
	.st2{fill:#85B3CB;}
	.st3{fill:#488DB4;}
	.st4{fill:#1B5F86;}
	.st5{fill:#2272A5;}
	.st6{fill:#CA4B06;}
	.st7{fill:#F8782F;}
	.st8{fill:#F6681C;}
	.st9{fill:#F8A77A;}
	.st10{fill:#FA965A;}
	.st11{fill:#F98748;}
	.st12{fill:#E15309;}
</style>
<g>
	<polygon class="st0" points="640,111 0.04,678 640,678 	"/>
	<polygon class="st1" points="640.08,677.54 0.12,1243.98 640.08,1243.98 	"/>
	<polygon class="st2" points="640.08,1243.98 0.12,1810.42 640.08,1810.42 	"/>
	<polygon class="st2" points="640.08,1810.42 1280.04,1243.98 640.08,1243.98 	"/>
	<polygon class="st3" points="640.08,1243.98 1280.04,677.54 640.08,677.54 	"/>
	<polygon class="st4" points="640,677.44 1280,111 640,111 	"/>
	<polygon class="st5" points="0,1244.44 639.96,678 0,678 	"/>
	<polygon class="st6" points="1280.04,677.54 1920,111.1 1280.04,111.1 	"/>
	<polygon class="st7" points="1280.04,1243.98 1920,677.54 1280.04,677.54 	"/>
	<polygon class="st8" points="1280.04,677.54 640.08,1243.98 1280.04,1243.98 	"/>
	<polygon class="st9" points="1280.04,1243.98 640.08,1810.42 1280.04,1810.42 	"/>
	<polygon class="st10" points="1280.04,1810.42 1920,1243.98 1280.04,1243.98 	"/>
	<polygon class="st11" points="1920,677.54 1280.04,1243.98 1920,1243.98 	"/>
	<polygon class="st12" points="1280.04,111.1 640.08,677.54 1280.04,677.54 	"/>
</g>
</svg>
